<svg width="13" height="13" viewBox="0 0 13 13" fill="none" xmlns="http://www.w3.org/2000/svg">
<path d="M6.50643 4.9588C6.12684 4.9588 5.77137 5.10606 5.50223 5.3752C5.23436 5.64434 5.08582 5.99981 5.08582 6.3794C5.08582 6.75899 5.23436 7.11446 5.50223 7.3836C5.77137 7.65147 6.12684 7.80001 6.50643 7.80001C6.88602 7.80001 7.24149 7.65147 7.51063 7.3836C7.7785 7.11446 7.92703 6.75899 7.92703 6.3794C7.92703 5.99981 7.7785 5.64434 7.51063 5.3752C7.37917 5.24273 7.2227 5.13771 7.05031 5.06623C6.87792 4.99474 6.69305 4.95822 6.50643 4.9588ZM11.7407 7.94854L10.9104 7.23887C10.9498 6.99766 10.9701 6.75137 10.9701 6.50635C10.9701 6.26133 10.9498 6.01378 10.9104 5.77383L11.7407 5.06417C11.8034 5.01047 11.8483 4.93896 11.8694 4.85914C11.8905 4.77931 11.8868 4.69496 11.8588 4.61729L11.8473 4.58428C11.6188 3.94532 11.2765 3.35304 10.8368 2.83614L10.8139 2.80948C10.7606 2.7467 10.6894 2.70158 10.6099 2.68005C10.5303 2.65852 10.4461 2.66159 10.3683 2.68887L9.33748 3.05577C8.95662 2.74346 8.5326 2.49717 8.07303 2.32579L7.87371 1.24796C7.85867 1.16676 7.81929 1.09206 7.76078 1.03378C7.70228 0.975505 7.62743 0.936408 7.54617 0.921686L7.5119 0.915338C6.85174 0.796002 6.15604 0.796002 5.49588 0.915338L5.4616 0.921686C5.38035 0.936408 5.3055 0.975505 5.24699 1.03378C5.18849 1.09206 5.1491 1.16676 5.13407 1.24796L4.93348 2.33087C4.47826 2.50362 4.0542 2.74931 3.67791 3.05831L2.63944 2.68887C2.5617 2.66138 2.47743 2.65819 2.39784 2.67973C2.31825 2.70127 2.24709 2.74653 2.19383 2.80948L2.17098 2.83614C1.73209 3.35359 1.3898 3.94572 1.16043 4.58428L1.14901 4.61729C1.09188 4.77598 1.13885 4.95372 1.26707 5.06417L2.1075 5.78145C2.06815 6.02012 2.04911 6.26387 2.04911 6.50508C2.04911 6.74883 2.06815 6.99258 2.1075 7.22872L1.26961 7.946C1.20689 7.9997 1.162 8.07121 1.14091 8.15103C1.11982 8.23086 1.12353 8.31521 1.15155 8.39288L1.16297 8.42589C1.39276 9.06446 1.73172 9.65479 2.17352 10.174L2.19637 10.2007C2.24976 10.2635 2.32092 10.3086 2.40046 10.3301C2.48001 10.3517 2.56421 10.3486 2.64198 10.3213L3.68045 9.95186C4.05877 10.2629 4.48026 10.5092 4.93602 10.6793L5.1366 11.7622C5.15164 11.8434 5.19103 11.9181 5.24953 11.9764C5.30804 12.0347 5.38289 12.0738 5.46414 12.0885L5.49842 12.0948C6.16507 12.2148 6.84779 12.2148 7.51444 12.0948L7.54871 12.0885C7.62997 12.0738 7.70482 12.0347 7.76332 11.9764C7.82183 11.9181 7.86121 11.8434 7.87625 11.7622L8.07557 10.6844C8.53514 10.5117 8.95916 10.2667 9.34002 9.9544L10.3709 10.3213C10.4486 10.3488 10.5329 10.352 10.6125 10.3304C10.6921 10.3089 10.7632 10.2636 10.8165 10.2007L10.8393 10.174C11.2811 9.65225 11.6201 9.06446 11.8499 8.42589L11.8613 8.39288C11.9159 8.23546 11.8689 8.05899 11.7407 7.94854ZM6.50643 8.61124C5.27371 8.61124 4.27459 7.61212 4.27459 6.3794C4.27459 5.14669 5.27371 4.14756 6.50643 4.14756C7.73914 4.14756 8.73826 5.14669 8.73826 6.3794C8.73826 7.61212 7.73914 8.61124 6.50643 8.61124Z" fill="#38599A"/>
</svg>
